<?xml version="1.0" encoding="UTF-8"?> <!-- Generator: Adobe Illustrator 24.0.1, SVG Export Plug-In . SVG Version: 6.00 Build 0) --> <svg xmlns="http://www.w3.org/2000/svg" xmlns:xlink="http://www.w3.org/1999/xlink" version="1.1" id="Livello_1" x="0px" y="0px" viewBox="0 0 344.9 149.7" style="enable-background:new 0 0 344.9 149.7;" xml:space="preserve"> <style type="text/css"> .st0{fill:#1D1D1B;} </style> <g> <path class="st0" d="M273.3,4.8c0,0.2,0.2,0.6,0.7,1.2c0.6,0.6,1.1,1.2,1.7,1.9l8.3,8.4l1-0.8l-4.7-11.3c-0.2-0.5-0.4-1-0.6-1.4 c-0.2-0.4-0.3-0.8-0.5-1c-0.3-0.6-0.5-0.9-0.8-0.9c-0.4,0-0.8,0.1-1.2,0.3c-0.4,0.2-0.9,0.4-1.3,0.7c-0.5,0.3-0.9,0.6-1.2,0.9 c-0.4,0.3-0.7,0.6-0.9,0.9C273.5,4.1,273.3,4.5,273.3,4.8 M260.5,18.4v31.1c0,3.1,0.5,5.7,1.5,7.7c1,2.1,2.3,3.7,4,5 c1.7,1.3,3.7,2.2,6,2.7c2.3,0.6,4.8,0.8,7.5,0.8c2.5,0,4.8-0.2,7.1-0.7c2.2-0.4,4.2-1.2,5.8-2.3c1.7-1.1,3-2.5,4-4.3 c1-1.8,1.5-4.1,1.5-6.9V18.4h-3l-0.1,32.2c0,2.1-0.3,3.9-1,5.4c-0.7,1.5-1.6,2.7-2.9,3.6c-1.2,0.9-2.7,1.5-4.3,1.9 s-3.5,0.6-5.4,0.6c-3.4,0-6-0.9-7.6-2.7c-1.6-1.8-2.4-4.4-2.4-7.8V18.4H260.5z M241.5,65.4h10.6V18.4h-10.6V65.4z M213.8,63.2 c-3,0-5.5-0.6-7.7-1.9c-2.1-1.2-3.9-2.9-5.2-4.9c-1.4-2-2.4-4.3-3-6.8c-0.6-2.5-1-5.1-1-7.7c0-2.7,0.3-5.3,1-7.8 c0.7-2.5,1.7-4.8,3.1-6.8c1.4-2,3.1-3.6,5.2-4.8c2.1-1.2,4.6-1.8,7.5-1.8h1.6c0.5,0,1.1,0,1.6,0.1c0.6,0,1.1,0.1,1.6,0.1 c0.5,0,1,0.1,1.6,0.2c2,0.3,4,0.6,5.9,1.1c1.9,0.5,3.8,1,5.7,1.5v-2.6c-1.1-0.6-2.5-1-4-1.4c-1.5-0.4-3.1-0.8-4.7-1 c-1.6-0.3-3.2-0.5-4.8-0.6c-1.6-0.1-3.1-0.2-4.4-0.2c-3.8,0-7.4,0.5-10.8,1.5c-3.4,1-6.5,2.5-9.1,4.4c-2.6,2-4.7,4.5-6.3,7.5 c-1.6,3-2.3,6.5-2.3,10.5c0,4,0.8,7.6,2.4,10.6c1.6,3,3.7,5.5,6.4,7.5c2.7,2,5.7,3.4,9.1,4.4c3.4,1,6.9,1.4,10.5,1.4 c3,0,6-0.2,9-0.7c3-0.5,6-1,8.9-1.6v-2.7c-1.4,0.2-2.7,0.5-3.9,0.7c-1,0.2-2,0.4-2.9,0.5c-0.9,0.2-1.6,0.3-2,0.4 c-2.4,0.4-4.9,0.7-7.3,0.8c-0.1,0-0.3,0-0.5,0c-0.2,0-0.3,0-0.5,0H213.8z M133.6,4.8c0,0.2,0.2,0.6,0.7,1.2 c0.6,0.6,1.1,1.2,1.7,1.9l8.3,8.4l1-0.8l-4.7-11.3c-0.2-0.5-0.4-1-0.6-1.4c-0.2-0.4-0.3-0.8-0.5-1c-0.3-0.6-0.5-0.9-0.8-0.9 c-0.4,0-0.8,0.1-1.2,0.3c-0.4,0.2-0.9,0.4-1.3,0.7c-0.5,0.3-0.9,0.6-1.2,0.9c-0.4,0.3-0.7,0.6-0.9,0.9 C133.8,4.1,133.6,4.5,133.6,4.8 M120.8,18.4v31.1c0,3.1,0.5,5.7,1.5,7.7c1,2.1,2.3,3.7,4,5c1.7,1.3,3.7,2.2,6,2.7 c2.3,0.6,4.8,0.8,7.5,0.8c2.5,0,4.8-0.2,7.1-0.7c2.2-0.4,4.2-1.2,5.8-2.3c1.7-1.1,3-2.5,4-4.3c1-1.8,1.5-4.1,1.5-6.9V18.4h-3 l-0.1,32.2c0,2.1-0.3,3.9-1,5.4c-0.7,1.5-1.6,2.7-2.9,3.6c-1.2,0.9-2.7,1.5-4.3,1.9c-1.7,0.4-3.5,0.6-5.4,0.6c-3.5,0-6-0.9-7.6-2.7 c-1.6-1.8-2.4-4.4-2.4-7.8V18.4H120.8z M101.8,65.4h10.6V18.4h-10.6V65.4z M74.1,63.2c-3,0-5.5-0.6-7.7-1.9 c-2.1-1.2-3.9-2.9-5.2-4.9c-1.4-2-2.4-4.3-3-6.8c-0.6-2.5-1-5.1-1-7.7c0-2.7,0.3-5.3,1-7.8c0.7-2.5,1.7-4.8,3.1-6.8 c1.4-2,3.1-3.6,5.2-4.8c2.1-1.2,4.6-1.8,7.5-1.8h1.6c0.5,0,1.1,0,1.6,0.1c0.6,0,1.1,0.1,1.6,0.1c0.5,0,1,0.1,1.6,0.2 c2,0.3,4,0.6,5.9,1.1c1.9,0.5,3.8,1,5.7,1.5v-2.6c-1.1-0.6-2.5-1-4-1.4c-1.5-0.4-3.1-0.8-4.7-1c-1.6-0.3-3.2-0.5-4.8-0.6 c-1.6-0.1-3.1-0.2-4.4-0.2c-3.8,0-7.4,0.5-10.8,1.5c-3.4,1-6.5,2.5-9.1,4.4c-2.6,2-4.7,4.5-6.3,7.5c-1.6,3-2.3,6.5-2.3,10.5 c0,4,0.8,7.6,2.4,10.6c1.6,3,3.7,5.5,6.4,7.5c2.7,2,5.7,3.4,9.1,4.4c3.4,1,6.9,1.4,10.5,1.4c3,0,6-0.2,9-0.7c3-0.5,6-1,8.9-1.6 v-2.7c-1.4,0.2-2.7,0.5-3.9,0.7c-1,0.2-2,0.4-2.9,0.5c-0.9,0.2-1.6,0.3-2,0.4c-2.4,0.4-4.9,0.7-7.3,0.8c-0.1,0-0.3,0-0.4,0 c-0.2,0-0.3,0-0.5,0H74.1z"></path> </g> <g> <g> <path class="st0" d="M21.6,113.4h-7.1v18.1H13v-18.1H5.9V112h15.8V113.4z"></path> <path class="st0" d="M14.8,131.8h-2.1v-18.1H5.5v-2H22v2h-7.1V131.8z M13.3,131.2h0.9v-18.1h7.1v-0.8H6.2v0.8h7.1V131.2z"></path> </g> <g> <path class="st0" d="M37.4,113.4H26.8v6.9h8.3v1.4h-8.3v8.4h11v1.4H25.2V112h12.2V113.4z"></path> <path class="st0" d="M38.1,131.8H24.9v-20.1h12.8v2H27.1v6.3h8.3v2h-8.3v7.8h11V131.8z M25.6,131.2h11.9v-0.8h-11v-9.1h8.3v-0.8 h-8.3v-7.5h10.7v-0.8H25.6V131.2z"></path> </g> <g> <path class="st0" d="M56.9,112v19.8h-0.6l-12.9-16.5v16.2h-1.5v-19.8h0.6l12.9,16.6V112H56.9z"></path> <path class="st0" d="M57.2,132.1h-1.1l-0.1-0.1l-12.3-15.8v15.6h-2.1v-20.4h1l12.5,16v-15.7h2.1V132.1z M56.4,131.5h0.2v-19.2 h-0.9v16.9L42.3,112h-0.1v19.2h0.9v-16.8L56.4,131.5z"></path> </g> <g> <path class="st0" d="M64.2,131.5h-1.5V112h1.5V131.5z"></path> <path class="st0" d="M64.5,131.8h-2.1v-20.1h2.1V131.8z M63,131.2h0.9v-18.9H63V131.2z"></path> </g> <g> <path class="st0" d="M87.4,111.7v19.8h-1.5v-15.8l-6.8,9.8h-0.6l-6.9-9.8v15.8H70v-19.8h0.6l8.1,11.6l8.1-11.6H87.4z"></path> <path class="st0" d="M87.7,131.8h-2.1v-15.2l-6.4,9.1h-0.9l-6.4-9.1v15.2h-2.1v-20.4h1.1l7.9,11.4l8-11.4h1.1V131.8z M86.1,131.2 h0.9V112h-0.1l-8.3,11.8L70.4,112h-0.1v19.2h0.9v-16.5l7.3,10.4h0.3l7.3-10.4V131.2z"></path> </g> <g> <path class="st0" d="M105.3,113.4H94.7v6.9h8.3v1.4h-8.3v8.4h11v1.4H93.2V112h12.2V113.4z"></path> <path class="st0" d="M106,131.8H92.8v-20.1h12.8v2H95v6.3h8.3v2H95v7.8h11V131.8z M93.5,131.2h11.9v-0.8h-11v-9.1h8.3v-0.8h-8.3 v-7.5H105v-0.8H93.5V131.2z"></path> </g> <g> <path class="st0" d="M124.8,112v19.8h-0.6l-12.9-16.5v16.2h-1.5v-19.8h0.6l12.9,16.6V112H124.8z"></path> <path class="st0" d="M125.1,132.1H124l-0.1-0.1l-12.3-15.8v15.6h-2.1v-20.4h1l12.5,16v-15.7h2.1V132.1z M124.3,131.5h0.2v-19.2 h-0.9v16.9L110.2,112h-0.1v19.2h0.9v-16.8L124.3,131.5z"></path> </g> <g> <path class="st0" d="M144.2,113.4h-7.1v18.1h-1.5v-18.1h-7.1V112h15.8V113.4z"></path> <path class="st0" d="M137.4,131.8h-2.1v-18.1h-7.1v-2h16.4v2h-7.1V131.8z M135.8,131.2h0.9v-18.1h7.1v-0.8h-15.2v0.8h7.1V131.2z"></path> </g> <g> <path class="st0" d="M149.3,131.5h-1.5V112h1.5V131.5z"></path> <path class="st0" d="M149.6,131.8h-2.1v-20.1h2.1V131.8z M148.1,131.2h0.9v-18.9h-0.9V131.2z"></path> </g> <g> <path class="st0" d="M176.1,122.6c0.7,0.9,1.1,2,1.1,3.4c0,1.6-0.5,2.9-1.6,4c-1.1,1-2.6,1.6-4.4,1.6h-7.7V112h6.6 c1.6,0,2.9,0.4,3.9,1.3c0.9,0.9,1.4,2,1.4,3.4c0,1.8-0.7,3.1-2.2,4C174.3,121,175.3,121.6,176.1,122.6z M164.9,113.4v6.9h4.9 c1.2,0,2.2-0.3,2.8-1c0.6-0.6,1-1.5,1-2.5c0-1.1-0.3-1.9-1-2.5c-0.6-0.6-1.6-0.9-2.8-0.9L164.9,113.4z M174.4,128.9 c0.8-0.8,1.2-1.8,1.2-3s-0.4-2.3-1.2-3c-0.8-0.8-1.9-1.2-3.4-1.2h-6v8.4h6C172.4,130.1,173.6,129.7,174.4,128.9z"></path> <path class="st0" d="M171.1,131.8h-8v-20.1h6.9c1.7,0,3.1,0.5,4.1,1.4c1,0.9,1.5,2.2,1.5,3.6c0,1.7-0.6,3-1.8,3.8 c1.1,0.4,1.9,1,2.6,1.8v0c0.8,1,1.2,2.2,1.2,3.6c0,1.7-0.6,3.1-1.7,4.2C174.6,131.2,173.1,131.8,171.1,131.8z M163.7,131.2h7.4 c1.8,0,3.2-0.5,4.2-1.5c1-1,1.5-2.2,1.5-3.8c0-1.2-0.3-2.3-1-3.2c-0.7-0.9-1.7-1.5-2.9-1.7l-0.8-0.2l0.7-0.4 c1.4-0.8,2.1-2,2.1-3.7c0-1.3-0.4-2.4-1.3-3.2c-0.9-0.8-2.1-1.2-3.6-1.2h-6.3V131.2z M170.9,130.4h-6.4v-9h6.4 c1.6,0,2.8,0.4,3.6,1.3c0.9,0.8,1.3,1.9,1.3,3.3c0,1.3-0.4,2.4-1.3,3.2l0,0C173.7,130,172.5,130.4,170.9,130.4z M165.2,129.8h5.7 c1.4,0,2.5-0.4,3.2-1.1l0,0c0.8-0.7,1.1-1.6,1.1-2.8c0-1.2-0.4-2.1-1.1-2.8c-0.7-0.7-1.8-1.1-3.2-1.1h-5.7V129.8z M169.8,120.6 h-5.2v-7.5l5.2,0c1.3,0,2.3,0.3,3,1c0.7,0.7,1.1,1.6,1.1,2.8c0,1.1-0.4,2-1.1,2.7C172.2,120.2,171.1,120.6,169.8,120.6z M165.2,120h4.6c1.2,0,2-0.3,2.6-0.9c0.6-0.6,0.9-1.3,0.9-2.3c0-1-0.3-1.7-0.9-2.3c-0.6-0.6-1.5-0.9-2.6-0.9l-4.6,0V120z"></path> </g> <g> <path class="st0" d="M193.2,126.8H183l-1.9,4.6h-1.6l8.4-19.8h0.6l8.3,19.8h-1.6L193.2,126.8z M183.5,125.4h9.1l-4.5-11 L183.5,125.4z"></path> <path class="st0" d="M197.2,131.8h-2.3l-1.9-4.6h-9.8l-1.9,4.6H179l8.6-20.4h1L197.2,131.8z M195.3,131.2h1l-8.1-19.2H188 l-8.1,19.2h0.9l1.9-4.6h10.6L195.3,131.2z M193,125.7h-10l5-12.1L193,125.7z M184,125.1h8.1l-4.1-9.9L184,125.1z"></path> </g> <g> <path class="st0" d="M213.6,131.5l-6.6-8.7h-4.8v8.7h-1.5V112h6.6c1.8,0,3.2,0.5,4.3,1.5c1.1,1,1.6,2.3,1.6,3.8 c0,1.4-0.4,2.5-1.2,3.5c-0.8,1-1.9,1.6-3.3,1.8l6.6,8.9H213.6z M202.3,121.3h5c1.4,0,2.5-0.4,3.2-1.1c0.8-0.7,1.1-1.7,1.1-2.9 c0-1.2-0.4-2.1-1.1-2.9c-0.8-0.7-1.8-1.1-3.2-1.1h-5V121.3z"></path> <path class="st0" d="M216,131.8h-2.6l-6.6-8.7h-4.3v8.7h-2.1v-20.1h6.9c1.9,0,3.4,0.5,4.5,1.6c1.1,1.1,1.7,2.4,1.7,4.1 c0,1.4-0.4,2.7-1.3,3.7c-0.7,0.9-1.7,1.5-3,1.8L216,131.8z M213.7,131.2h1l-6.5-8.8l0.5-0.1c1.3-0.2,2.4-0.8,3.1-1.7 c0.7-0.9,1.1-2,1.1-3.3c0-1.5-0.5-2.7-1.5-3.6c-1-0.9-2.4-1.4-4.1-1.4h-6.3v18.9h0.9v-8.7h5.2L213.7,131.2z M207.3,121.6H202v-8.6 h5.3c1.5,0,2.6,0.4,3.4,1.2c0.8,0.8,1.2,1.8,1.2,3.1c0,1.3-0.4,2.3-1.2,3.1C209.9,121.2,208.8,121.6,207.3,121.6z M202.6,121h4.7 c1.3,0,2.3-0.3,3-1c0.7-0.7,1-1.6,1-2.7s-0.3-2-1-2.7c-0.7-0.7-1.7-1-3-1h-4.7V121z"></path> </g> <g> <path class="st0" d="M233.4,113.4h-7.1v18.1h-1.5v-18.1h-7.1V112h15.8V113.4z"></path> <path class="st0" d="M226.5,131.8h-2.1v-18.1h-7.1v-2h16.4v2h-7.1V131.8z M225,131.2h0.9v-18.1h7.1v-0.8h-15.2v0.8h7.1V131.2z"></path> </g> <g> <path class="st0" d="M251.9,114.6c1.9,1.9,2.9,4.3,2.9,7.1c0,2.8-1,5.2-2.9,7.1c-1.9,1.9-4.3,2.9-7.1,2.9c-2.8,0-5.2-1-7.1-2.9 c-1.9-1.9-2.9-4.3-2.9-7.1c0-2.8,1-5.2,2.9-7.1c1.9-1.9,4.3-2.9,7.1-2.9C247.6,111.7,249.9,112.7,251.9,114.6z M238.8,115.6 c-1.6,1.6-2.4,3.7-2.4,6.1c0,2.4,0.8,4.5,2.4,6.1s3.6,2.5,6,2.5c2.4,0,4.4-0.8,6-2.5c1.6-1.7,2.4-3.7,2.4-6.1 c0-2.4-0.8-4.5-2.4-6.1c-1.6-1.7-3.6-2.5-5.9-2.5C242.4,113.1,240.4,113.9,238.8,115.6z"></path> <path class="st0" d="M244.8,132.1c-2.9,0-5.3-1-7.3-3c-2-2-3-4.5-3-7.3c0-2.9,1-5.4,3-7.4c2-2,4.4-3,7.3-3c2.8,0,5.3,1,7.3,3 c2,2,3,4.5,3,7.4c0,2.9-1,5.4-3,7.3C250.1,131.1,247.6,132.1,244.8,132.1z M244.8,112c-2.7,0-5,0.9-6.9,2.8 c-1.9,1.9-2.8,4.2-2.8,6.9c0,2.7,0.9,5,2.8,6.9c1.9,1.9,4.2,2.8,6.9,2.8c2.7,0,5-0.9,6.9-2.8c1.9-1.9,2.8-4.2,2.8-6.9 c0-2.7-1-5.1-2.8-6.9C249.8,112.9,247.5,112,244.8,112z M244.8,130.6c-2.5,0-4.6-0.9-6.2-2.6c-1.6-1.7-2.5-3.8-2.5-6.4 c0-2.5,0.8-4.6,2.5-6.3c1.6-1.7,3.7-2.6,6.2-2.6c2.4,0,4.5,0.9,6.2,2.6c1.7,1.7,2.5,3.8,2.5,6.3c0,2.5-0.8,4.6-2.5,6.4 C249.4,129.8,247.3,130.6,244.8,130.6z M244.8,113.4c-2.3,0-4.2,0.8-5.8,2.4c-1.5,1.6-2.3,3.6-2.3,5.9c0,2.3,0.8,4.3,2.3,5.9 c1.5,1.6,3.5,2.4,5.8,2.4c2.3,0,4.2-0.8,5.7-2.4c1.5-1.6,2.3-3.6,2.3-5.9c0-2.3-0.8-4.3-2.3-5.9 C249,114.2,247.1,113.4,244.8,113.4z"></path> </g> <g> <path class="st0" d="M260.8,130.1h9.6v1.4h-11.1V112h1.5V130.1z"></path> <path class="st0" d="M270.7,131.8H259v-20.1h2.1v18.1h9.6V131.8z M259.6,131.2h10.5v-0.8h-9.6v-18.1h-0.9V131.2z"></path> </g> <g> <path class="st0" d="M289.3,114.6c1.9,1.9,2.9,4.3,2.9,7.1c0,2.8-1,5.2-2.9,7.1c-1.9,1.9-4.3,2.9-7.1,2.9c-2.8,0-5.2-1-7.1-2.9 c-1.9-1.9-2.9-4.3-2.9-7.1c0-2.8,1-5.2,2.9-7.1c1.9-1.9,4.3-2.9,7.1-2.9C285,111.7,287.3,112.7,289.3,114.6z M276.2,115.6 c-1.6,1.6-2.4,3.7-2.4,6.1c0,2.4,0.8,4.5,2.4,6.1s3.6,2.5,6,2.5c2.4,0,4.4-0.8,6-2.5c1.6-1.7,2.4-3.7,2.4-6.1 c0-2.4-0.8-4.5-2.4-6.1c-1.6-1.7-3.6-2.5-5.9-2.5C279.8,113.1,277.8,113.9,276.2,115.6z"></path> <path class="st0" d="M282.2,132.1c-2.9,0-5.3-1-7.3-3c-2-2-3-4.5-3-7.3c0-2.9,1-5.4,3-7.4c2-2,4.4-3,7.3-3c2.8,0,5.3,1,7.3,3 c2,2,3,4.5,3,7.4c0,2.9-1,5.4-3,7.3C287.5,131.1,285,132.1,282.2,132.1z M282.2,112c-2.7,0-5,0.9-6.9,2.8 c-1.9,1.9-2.8,4.2-2.8,6.9c0,2.7,0.9,5,2.8,6.9c1.9,1.9,4.2,2.8,6.9,2.8c2.7,0,5-0.9,6.9-2.8c1.9-1.9,2.8-4.2,2.8-6.9 c0-2.7-1-5.1-2.8-6.9C287.2,112.9,284.9,112,282.2,112z M282.2,130.6c-2.5,0-4.6-0.9-6.2-2.6c-1.6-1.7-2.5-3.8-2.5-6.4 c0-2.5,0.8-4.6,2.5-6.3c1.6-1.7,3.7-2.6,6.2-2.6c2.4,0,4.5,0.9,6.2,2.6c1.7,1.7,2.5,3.8,2.5,6.3c0,2.5-0.8,4.6-2.5,6.4 C286.8,129.8,284.7,130.6,282.2,130.6z M282.2,113.4c-2.3,0-4.2,0.8-5.8,2.4c-1.5,1.6-2.3,3.6-2.3,5.9c0,2.3,0.8,4.3,2.3,5.9 c1.5,1.6,3.5,2.4,5.8,2.4c2.3,0,4.2-0.8,5.7-2.4c1.5-1.6,2.3-3.6,2.3-5.9c0-2.3-0.8-4.3-2.3-5.9 C286.4,114.2,284.5,113.4,282.2,113.4z"></path> </g> <g> <path class="st0" d="M314,111.7v19.8h-1.5v-15.8l-6.8,9.8h-0.6l-6.9-9.8v15.8h-1.5v-19.8h0.6l8.1,11.6l8.1-11.6H314z"></path> <path class="st0" d="M314.3,131.8h-2.1v-15.2l-6.4,9.1h-0.9l-6.4-9.1v15.2h-2.1v-20.4h1.1l7.9,11.4l8-11.4h1.1V131.8z M312.8,131.2h0.9V112h-0.1l-8.3,11.8l-8.2-11.8H297v19.2h0.9v-16.5l7.3,10.4h0.3l7.3-10.4V131.2z"></path> </g> <g> <path class="st0" d="M332,113.4h-10.7v6.9h8.3v1.4h-8.3v8.4h11v1.4h-12.5V112H332V113.4z"></path> <path class="st0" d="M332.7,131.8h-13.2v-20.1h12.8v2h-10.7v6.3h8.3v2h-8.3v7.8h11V131.8z M320.1,131.2h11.9v-0.8h-11v-9.1h8.3 v-0.8H321v-7.5h10.7v-0.8h-11.6V131.2z"></path> </g> <g> <path class="st0" d="M339.6,131.5h-1.5V112h1.5V131.5z"></path> <path class="st0" d="M339.9,131.8h-2.1v-20.1h2.1V131.8z M338.4,131.2h0.9v-18.9h-0.9V131.2z"></path> </g> </g> <rect x="4.7" y="86.5" class="st0" width="335" height="2.5"></rect> </svg> 